<svg width="412" height="233" viewBox="0 0 412 233" fill="none" xmlns="http://www.w3.org/2000/svg">
<g clip-path="url(#clip0_3_33)">
<path d="M30.9974 232.32L30.5638 231.517C36.3774 228.368 43.6128 224.449 47.3919 218.018C51.1173 211.679 51.2009 203.071 47.6101 195.553C44.5542 189.154 38.9408 183.422 31.3768 178.975C29.8848 178.098 28.3186 177.267 26.8039 176.463C23.1428 174.519 19.357 172.51 16.2354 169.659C11.936 165.732 8.68291 159.143 11.1075 153.274C11.9049 151.401 13.2108 149.789 14.877 148.621C16.5431 147.454 18.5027 146.778 20.5333 146.669L20.5848 147.581C18.7245 147.68 16.9291 148.299 15.4024 149.368C13.8757 150.437 12.6788 151.913 11.9474 153.629C9.69434 159.083 12.7856 165.273 16.8497 168.985C19.886 171.757 23.6199 173.739 27.2309 175.656C28.7541 176.464 30.3293 177.3 31.8384 178.188C39.5598 182.727 45.298 188.595 48.4325 195.158C52.1525 202.947 52.0548 211.884 48.1777 218.482C44.2698 225.131 36.9106 229.117 30.9974 232.32Z" fill="#F1F1F1"/>
<path d="M26.3116 151.482C30.7174 151.482 34.289 149.744 34.289 147.601C34.289 145.458 30.7174 143.721 26.3116 143.721C21.9058 143.721 18.3342 145.458 18.3342 147.601C18.3342 149.744 21.9058 151.482 26.3116 151.482Z" fill="#F1F1F1"/>
<path d="M32.6935 177.047C37.0993 177.047 40.6709 175.31 40.6709 173.166C40.6709 171.023 37.0993 169.286 32.6935 169.286C28.2877 169.286 24.7161 171.023 24.7161 173.166C24.7161 175.31 28.2877 177.047 32.6935 177.047Z" fill="#F1F1F1"/>
<path d="M18.1063 181.156C22.5121 181.156 26.0837 179.418 26.0837 177.275C26.0837 175.132 22.5121 173.395 18.1063 173.395C13.7006 173.395 10.129 175.132 10.129 177.275C10.129 179.418 13.7006 181.156 18.1063 181.156Z" fill="#F1F1F1"/>
<path d="M40.8988 202.612C45.3046 202.612 48.8761 200.875 48.8761 198.732C48.8761 196.589 45.3046 194.851 40.8988 194.851C36.493 194.851 32.9214 196.589 32.9214 198.732C32.9214 200.875 36.493 202.612 40.8988 202.612Z" fill="#F1F1F1"/>
<path d="M56.8535 202.612C61.2593 202.612 64.8309 200.875 64.8309 198.732C64.8309 196.589 61.2593 194.851 56.8535 194.851C52.4477 194.851 48.8762 196.589 48.8762 198.732C48.8762 200.875 52.4477 202.612 56.8535 202.612Z" fill="#F1F1F1"/>
<path d="M412 7.04385H155.45V128.961H412V7.04385Z" fill="#E6E6E6"/>
<path d="M404.664 17.4985H162.786V119.218H404.664V17.4985Z" fill="white"/>
<path d="M411.891 0H155.34V10.9151H411.891V0Z" fill="#FF2359"/>
<path d="M163.44 7.07181C164.555 7.07181 165.46 6.16605 165.46 5.04874C165.46 3.93143 164.555 3.02567 163.44 3.02567C162.324 3.02567 161.42 3.93143 161.42 5.04874C161.42 6.16605 162.324 7.07181 163.44 7.07181Z" fill="white"/>
<path d="M171.107 7.07181C172.223 7.07181 173.127 6.16605 173.127 5.04874C173.127 3.93143 172.223 3.02567 171.107 3.02567C169.992 3.02567 169.087 3.93143 169.087 5.04874C169.087 6.16605 169.992 7.07181 171.107 7.07181Z" fill="white"/>
<path d="M178.775 7.07181C179.891 7.07181 180.795 6.16605 180.795 5.04874C180.795 3.93143 179.891 3.02567 178.775 3.02567C177.66 3.02567 176.755 3.93143 176.755 5.04874C176.755 6.16605 177.66 7.07181 178.775 7.07181Z" fill="white"/>
<path d="M270.972 41.6384C270.712 41.6384 270.463 41.7416 270.28 41.9254C270.096 42.1092 269.993 42.3585 269.993 42.6185C269.993 42.8784 270.096 43.1277 270.28 43.3115C270.463 43.4953 270.712 43.5986 270.972 43.5986H324.673C324.932 43.5986 325.181 43.4953 325.365 43.3115C325.548 43.1277 325.651 42.8784 325.651 42.6185C325.651 42.3585 325.548 42.1092 325.365 41.9254C325.181 41.7416 324.932 41.6384 324.673 41.6384H270.972Z" fill="#E6E6E6"/>
<path d="M270.972 47.5195C270.713 47.5201 270.464 47.6236 270.281 47.8073C270.098 47.9911 269.995 48.2401 269.995 48.4996C269.995 48.7592 270.098 49.0082 270.281 49.1919C270.464 49.3757 270.713 49.4792 270.972 49.4797H298.387C298.646 49.4792 298.895 49.3757 299.078 49.1919C299.261 49.0082 299.364 48.7592 299.364 48.4996C299.364 48.2401 299.261 47.9911 299.078 47.8073C298.895 47.6236 298.646 47.5201 298.387 47.5195H270.972Z" fill="#E6E6E6"/>
<path d="M269.62 75.9852C269.361 75.9852 269.112 76.0884 268.928 76.2722C268.745 76.456 268.642 76.7053 268.642 76.9653C268.642 77.2252 268.745 77.4745 268.928 77.6583C269.112 77.8421 269.361 77.9454 269.62 77.9454H370.31C370.569 77.9454 370.818 77.8421 371.002 77.6583C371.185 77.4745 371.288 77.2252 371.288 76.9653C371.288 76.7053 371.185 76.456 371.002 76.2722C370.818 76.0884 370.569 75.9852 370.31 75.9852H269.62Z" fill="#E6E6E6"/>
<path d="M269.62 81.8663C269.361 81.8669 269.113 81.9704 268.93 82.1541C268.747 82.3379 268.644 82.5869 268.644 82.8464C268.644 83.106 268.747 83.355 268.93 83.5387C269.113 83.7225 269.361 83.826 269.62 83.8265H344.024C344.283 83.826 344.532 83.7225 344.715 83.5387C344.898 83.355 345.001 83.106 345.001 82.8464C345.001 82.5869 344.898 82.3379 344.715 82.1541C344.532 81.9704 344.283 81.8669 344.024 81.8663H269.62Z" fill="#E6E6E6"/>
<path d="M269.62 87.6144C269.361 87.6149 269.113 87.7184 268.93 87.9022C268.747 88.0859 268.644 88.3349 268.644 88.5945C268.644 88.854 268.747 89.103 268.93 89.2868C269.113 89.4705 269.361 89.574 269.62 89.5746H370.31C370.569 89.574 370.817 89.4705 371 89.2868C371.184 89.103 371.286 88.854 371.286 88.5945C371.286 88.3349 371.184 88.0859 371 87.9022C370.817 87.7184 370.569 87.6149 370.31 87.6144H269.62Z" fill="#E6E6E6"/>
<path d="M269.62 93.4955C269.361 93.4961 269.113 93.5996 268.93 93.7833C268.747 93.9671 268.644 94.2161 268.644 94.4756C268.644 94.7352 268.747 94.9842 268.93 95.1679C269.113 95.3517 269.361 95.4552 269.62 95.4557H344.024C344.283 95.4552 344.532 95.3517 344.715 95.1679C344.898 94.9842 345.001 94.7352 345.001 94.4756C345.001 94.2161 344.898 93.9671 344.715 93.7833C344.532 93.5996 344.283 93.4961 344.024 93.4955H269.62Z" fill="#E6E6E6"/>
<path d="M216.979 79.9628C221.686 79.9628 225.501 76.1418 225.501 71.4285C225.501 66.7151 221.686 62.8941 216.979 62.8941C212.273 62.8941 208.458 66.7151 208.458 71.4285C208.458 76.1418 212.273 79.9628 216.979 79.9628Z" fill="#A0616A"/>
<path d="M214.281 64.601C214.281 64.601 218.258 65.6678 220.317 66.0945C222.376 66.5212 222.163 65.3122 222.163 65.3122C222.163 65.3122 224.862 65.6678 224.72 65.3833C224.578 65.0988 225.856 63.6053 224.365 61.8984C222.874 60.1916 223.3 58.9114 223.3 58.9114H222.021L221.666 58.4136H219.678C219.678 58.4136 217.479 56.483 213.574 57.0519C209.668 57.6209 205.049 59.1248 204.623 61.4717C204.565 61.79 204.489 62.1437 204.4 62.5173C203.332 67.0329 205.602 71.258 207.955 75.2554C208.534 76.2378 211.332 78.38 211.26 76.9102C211.189 75.4405 208.742 72.1396 210.446 71.9263C212.15 71.7129 215.062 67.3746 214.281 64.601Z" fill="#2F2E41"/>
<path d="M212.145 99.0185C210.5 98.8867 208.869 98.6182 207.268 98.216L207.358 96.514L208.104 82.9818L208.11 82.878H223.122L225.478 95.3379L225.795 97.0191C225.174 97.2612 224.545 97.4895 223.903 97.6901C223.896 97.6901 223.896 97.6971 223.889 97.6971C222.998 97.9738 222.093 98.2159 221.181 98.4165C219.968 98.6785 218.741 98.868 217.506 98.9838C216.551 99.0788 215.592 99.1249 214.632 99.1222C213.803 99.1223 212.967 99.0877 212.145 99.0185Z" fill="#FF2359"/>
<path d="M202.494 96.6109C201.873 96.3411 201.271 96.0505 200.677 95.7461L200.422 95.6147C200.249 95.5247 200.07 95.4279 199.897 95.331C199.662 95.1996 199.434 95.0681 199.213 94.9367C198.999 94.8121 198.778 94.6807 198.564 94.5493C198.55 94.5423 198.543 94.5354 198.529 94.5354C197.783 94.058 197.051 93.5668 196.346 93.0341C196.229 92.9442 196.111 92.8543 195.994 92.7643L195.869 90.7719L196.049 90.6611L208.104 82.9818L208.269 82.878L208.283 82.8711L209.983 82.878V89.2152C210.943 90.6058 211.592 93.5184 211.993 97.3304C212.048 97.877 212.097 98.4373 212.145 99.0185C210.5 98.8867 208.869 98.6182 207.268 98.2159C207.095 98.1814 206.929 98.1399 206.757 98.0914C205.75 97.8276 204.758 97.5089 203.786 97.1367C203.489 97.026 203.199 96.9084 202.909 96.7908L202.881 96.7769C202.757 96.7216 202.619 96.6663 202.494 96.6109Z" fill="#2F2E41"/>
<path d="M199.897 95.331C199.662 95.1996 199.434 95.0681 199.213 94.9367C198.999 94.8121 198.778 94.6807 198.564 94.5493C198.55 94.5423 198.543 94.5354 198.529 94.5354C197.783 94.058 197.051 93.5668 196.346 93.0341C196.229 92.9442 196.111 92.8543 195.994 92.7643C195.939 92.7159 195.883 92.6744 195.821 92.626C195.379 92.287 194.951 91.9341 194.536 91.5606C194.515 91.5467 194.502 91.5259 194.481 91.5121C194.899 91.1898 195.369 90.9396 195.869 90.7719L196.36 90.9171L199.855 91.9687L199.876 93.387L199.897 95.331Z" fill="#2F2E41"/>
<path d="M229.332 95.3517C229.125 95.4624 228.918 95.5731 228.711 95.6769C228.662 95.7046 228.621 95.7253 228.58 95.7461C228.303 95.8845 228.034 96.0228 227.758 96.1542C227.75 96.1612 227.737 96.1612 227.737 96.1681C227.723 96.175 227.702 96.1819 227.688 96.1889C227.067 96.4863 226.438 96.7631 225.795 97.019C225.174 97.2612 224.545 97.4895 223.903 97.6901C223.896 97.6901 223.896 97.697 223.889 97.697C222.998 97.9737 222.093 98.2159 221.181 98.4165C221.17 97.8482 221.245 97.2816 221.402 96.7354L221.409 96.6385L222.003 87.0082L221.208 82.8779L223.488 82.5389L236.026 89.2982C236.026 89.2982 234.645 90.6818 228.973 93.6291C228.472 93.8897 229.208 94.7568 229.332 95.3517Z" fill="#2F2E41"/>
<path d="M217.354 97.3235C216.456 97.4065 215.544 97.448 214.632 97.448C213.748 97.448 212.87 97.4134 211.993 97.3304C212.048 97.877 212.096 98.4374 212.145 99.0185C212.967 99.0877 213.803 99.1223 214.632 99.1223C215.592 99.125 216.551 99.0788 217.506 98.9839C218.741 98.868 219.968 98.6786 221.181 98.4166C221.17 97.8483 221.245 97.2817 221.402 96.7354L221.409 96.6386C220.075 96.9636 218.72 97.1925 217.354 97.3235ZM243.459 58.4978C242 54.2983 239.643 50.4682 236.553 47.2747C233.463 44.0811 229.715 41.6009 225.57 40.0071C221.425 38.4132 216.983 37.7441 212.553 38.0462C208.123 38.3484 203.812 39.6147 199.921 41.7567C196.03 43.8987 192.652 46.865 190.024 50.4486C187.395 54.0323 185.578 58.147 184.701 62.506C183.823 66.8649 183.905 71.3631 184.942 75.687C185.978 80.0108 187.944 84.0562 190.702 87.541C190.978 87.8869 191.262 88.2328 191.552 88.5649C191.579 88.5925 191.593 88.6133 191.614 88.6341C192.327 89.4578 193.086 90.2408 193.887 90.9794C194.08 91.1592 194.28 91.3391 194.481 91.5121C194.502 91.5259 194.515 91.5467 194.536 91.5605C194.951 91.9341 195.379 92.2869 195.821 92.6259C195.883 92.6744 195.939 92.7159 195.994 92.7643C196.111 92.8543 196.229 92.9442 196.346 93.0341C197.051 93.5668 197.783 94.058 198.529 94.5354C198.543 94.5354 198.55 94.5423 198.564 94.5492C198.778 94.6807 198.999 94.8121 199.213 94.9367C199.434 95.0681 199.662 95.1995 199.897 95.331C200.07 95.4278 200.249 95.5247 200.422 95.6146L200.677 95.7461C201.271 96.0505 201.873 96.3411 202.494 96.6109C202.619 96.6662 202.757 96.7216 202.881 96.7769L202.909 96.7908C203.199 96.9084 203.489 97.026 203.786 97.1367C204.758 97.5088 205.75 97.8276 206.756 98.0914C206.929 98.1399 207.095 98.1814 207.268 98.2159C208.869 98.6182 210.5 98.8867 212.145 99.0185C212.967 99.0877 213.803 99.1222 214.632 99.1222C215.592 99.125 216.551 99.0788 217.506 98.9839C218.741 98.868 219.968 98.6786 221.181 98.4166C222.093 98.216 222.998 97.9738 223.889 97.6971C223.896 97.6971 223.896 97.6902 223.903 97.6902C224.545 97.4895 225.174 97.2612 225.795 97.0191C226.438 96.7631 227.067 96.4864 227.688 96.1889C227.702 96.182 227.723 96.1751 227.737 96.1681C227.737 96.1612 227.75 96.1612 227.757 96.1543C228.034 96.0228 228.303 95.8845 228.58 95.7461C228.621 95.7253 228.662 95.7046 228.711 95.6769C228.918 95.5732 229.125 95.4624 229.332 95.3518C229.346 95.3448 229.353 95.3379 229.367 95.331C229.913 95.0266 230.452 94.7084 230.984 94.3694C231.129 94.2794 231.274 94.1895 231.419 94.0857C231.633 93.9543 231.84 93.809 232.04 93.6637C232.31 93.4769 232.579 93.2832 232.842 93.0825C232.929 93.0264 233.012 92.964 233.09 92.8958C233.733 92.4115 234.355 91.8995 234.949 91.3599C239.454 87.3396 242.667 82.0715 244.182 76.2219C245.697 70.3723 245.446 64.2042 243.459 58.4978L243.459 58.4978ZM234.431 89.575C233.683 90.2796 232.899 90.9446 232.082 91.5675C231.902 91.7058 231.716 91.8442 231.529 91.9687C231.35 92.1071 231.17 92.2385 230.984 92.363C230.825 92.4738 230.666 92.5844 230.5 92.6882C230.486 92.702 230.465 92.709 230.452 92.7228C230.334 92.8058 230.21 92.8819 230.092 92.958C229.726 93.1863 229.346 93.4146 228.973 93.6291C228.883 93.6775 228.801 93.7328 228.711 93.7813C228.662 93.809 228.614 93.8366 228.559 93.8643C228.352 93.9819 228.144 94.0857 227.937 94.1964C227.909 94.2171 227.875 94.2241 227.847 94.2448C227.837 94.2465 227.827 94.2513 227.82 94.2586C227.675 94.3348 227.53 94.4039 227.384 94.4731C227.26 94.5354 227.143 94.5976 227.018 94.653C226.514 94.8952 225.996 95.1234 225.478 95.3379C224.932 95.5593 224.379 95.7599 223.82 95.9467C223.681 95.9951 223.536 96.0505 223.391 96.092C222.735 96.2995 222.079 96.4864 221.409 96.6385C220.075 96.9636 218.72 97.1925 217.354 97.3235C216.456 97.4065 215.544 97.448 214.632 97.448C213.748 97.448 212.87 97.4134 211.993 97.3304C210.428 97.187 208.878 96.914 207.358 96.514C207.302 96.5002 207.24 96.4864 207.185 96.4725C205.938 96.147 204.717 95.7308 203.53 95.2272C203.468 95.1996 203.399 95.1788 203.344 95.1511C203.275 95.1234 203.213 95.1027 203.157 95.075C203.088 95.0473 203.026 95.0197 202.964 94.992C202.446 94.7637 201.942 94.5146 201.437 94.2586L201.202 94.1341C200.753 93.8989 200.311 93.6567 199.876 93.3869C199.724 93.3039 199.565 93.2071 199.413 93.1102C199.241 93.0064 199.068 92.8957 198.902 92.785C198.861 92.7574 198.819 92.7297 198.778 92.702C198.391 92.4391 197.997 92.1762 197.624 91.8926C197.362 91.6989 197.106 91.5121 196.85 91.3114C196.684 91.1869 196.519 91.0555 196.36 90.9171C196.256 90.841 196.153 90.7511 196.049 90.6611C195.911 90.5435 195.773 90.4259 195.635 90.3014C195.42 90.1284 195.22 89.9347 195.026 89.7548C194.249 89.0369 193.513 88.2746 192.823 87.4718C192.588 87.2089 192.367 86.946 192.153 86.6693C192.103 86.6147 192.057 86.557 192.015 86.4963C188.537 82.0994 186.412 76.7839 185.899 71.1982C185.386 65.6125 186.508 59.9982 189.127 55.04C191.746 50.0819 195.75 45.9943 200.649 43.276C205.549 40.5577 211.132 39.3261 216.718 39.7316C222.305 40.1371 227.652 42.162 232.109 45.5594C236.566 48.9568 239.939 53.5798 241.817 58.8644C243.695 64.1489 243.996 69.8666 242.685 75.3199C241.373 80.7732 238.505 85.7263 234.431 89.575L234.431 89.575Z" fill="#3F3D56"/>
<path d="M74.5022 226.753L80.0909 226.753L82.7495 205.165L74.5013 205.165L74.5022 226.753Z" fill="#A0616A"/>
<path d="M73.0768 224.926L84.0828 224.926H84.0833C85.9434 224.926 87.7274 225.666 89.0427 226.983C90.3581 228.3 91.0971 230.087 91.0972 231.95V232.178L73.0771 232.179L73.0768 224.926Z" fill="#2F2E41"/>
<path d="M95.4713 226.753L101.06 226.753L103.719 205.165L95.4704 205.165L95.4713 226.753Z" fill="#A0616A"/>
<path d="M94.0459 224.926L105.052 224.926H105.052C106.913 224.926 108.696 225.666 110.012 226.983C111.327 228.3 112.066 230.087 112.066 231.95V232.178L94.0462 232.179L94.0459 224.926Z" fill="#2F2E41"/>
<path d="M57.5449 141.449C58.0023 140.958 58.3467 140.373 58.5539 139.735C58.7612 139.097 58.8262 138.421 58.7443 137.755C58.6625 137.089 58.4358 136.449 58.0802 135.88C57.7246 135.311 57.2489 134.827 56.6864 134.462L60.5694 118.619L52.5955 121.464L50.1306 136.073C49.5813 137.06 49.4126 138.215 49.6564 139.318C49.9003 140.421 50.5397 141.396 51.4536 142.059C52.3675 142.722 53.4924 143.025 54.615 142.913C55.7377 142.8 56.7802 142.279 57.5449 141.449Z" fill="#9E616A"/>
<path d="M116.87 140.079C116.412 139.589 116.068 139.004 115.861 138.365C115.653 137.727 115.588 137.051 115.67 136.385C115.752 135.719 115.979 135.079 116.334 134.51C116.69 133.941 117.166 133.457 117.728 133.093L113.845 117.249L121.819 120.095L124.284 134.704C124.833 135.691 125.002 136.845 124.758 137.948C124.514 139.051 123.875 140.027 122.961 140.689C122.047 141.352 120.922 141.656 119.799 141.543C118.677 141.431 117.634 140.91 116.87 140.079Z" fill="#9E616A"/>
<path d="M64.8979 130.343L72.6442 221.22L83.9784 220.185L88.5146 149.95L92.5525 177.76L93.3612 221.936L103.618 221.251L109.313 173.727L107.916 127.702L68.9787 123.753L64.8979 130.343Z" fill="#2F2E41"/>
<path d="M86.2067 47.6463C92.6984 47.6463 97.9611 42.376 97.9611 35.8746C97.9611 29.3732 92.6984 24.1028 86.2067 24.1028C79.7149 24.1028 74.4522 29.3732 74.4522 35.8746C74.4522 42.376 79.7149 47.6463 86.2067 47.6463Z" fill="#A0616A"/>
<path d="M82.4844 26.4572C82.4844 26.4572 87.9698 27.9287 90.8105 28.5173C93.6511 29.1059 93.3572 27.4382 93.3572 27.4382C93.3572 27.4382 97.0795 27.9287 96.8836 27.5363C96.6877 27.1439 98.4508 25.0838 96.3938 22.7295C94.3368 20.3751 94.9245 18.6094 94.9245 18.6094H93.1613L92.6716 17.9227H89.9288C89.9288 17.9227 86.8965 15.2598 81.5091 16.0445C76.1216 16.8293 69.7504 18.9037 69.1627 22.1409C69.083 22.58 68.978 23.0678 68.8562 23.583C67.383 29.8117 70.5131 35.6395 73.7596 41.1532C74.5575 42.5083 78.4169 45.4631 78.3181 43.4358C78.2194 41.4085 74.844 36.8556 77.1949 36.5613C79.5458 36.267 83.5619 30.283 82.4844 26.4572Z" fill="#2F2E41"/>
<path d="M73.975 51.6675H94.6759L109.313 129.082C109.313 129.082 96.5521 130.175 89.2586 132.914C81.965 135.653 69.8401 126.657 69.8401 126.657L73.975 51.6675Z" fill="#FF2359"/>
<path d="M76.5594 60.4098V51.6675L74.2155 51.6532L57.0907 62.5572L60.8066 122.299C60.8066 122.299 65.2046 142.23 71.8754 142.023C78.5461 141.816 83.6897 70.7642 76.5594 60.4098Z" fill="#2F2E41"/>
<path d="M62.5914 64.2076L57.0907 62.5573C57.0907 62.5573 53.0185 63.7511 53.0185 67.8597C53.0185 71.9684 49.5099 130.343 49.5099 130.343L60.6558 131.329L63.0472 101.642L62.5914 64.2076Z" fill="#2F2E41"/>
<path d="M93.1333 57.3598L92.0368 51.6675L95.1846 51.1967L106.581 55.7619C106.581 55.7619 116.837 130.86 112.279 133.142C107.72 135.425 104.643 133.656 104.643 133.656C104.643 133.656 89.6491 78.2685 92.3029 70.7815L93.1333 57.3598Z" fill="#2F2E41"/>
<path d="M98.6035 56.9032L100.548 56.0554C100.548 56.0554 106.257 53.2224 109.496 58.9432C112.735 64.6641 124.131 128.577 124.131 128.577L114.754 130.343L107.744 107.342L98.6035 56.9032Z" fill="#2F2E41"/>
<path d="M174.135 232.436H0.45585C0.334951 232.436 0.219003 232.388 0.133515 232.302C0.0480265 232.216 0 232.1 0 231.979C0 231.858 0.0480265 231.742 0.133515 231.656C0.219003 231.571 0.334951 231.523 0.45585 231.523H174.135C174.255 231.523 174.371 231.571 174.457 231.656C174.542 231.742 174.59 231.858 174.59 231.979C174.59 232.1 174.542 232.216 174.457 232.302C174.371 232.388 174.255 232.436 174.135 232.436Z" fill="#CACACA"/>
</g>
<defs>
<clipPath id="clip0_3_33">
<rect width="412" height="232.436" fill="white"/>
</clipPath>
</defs>
</svg>
