<svg width="328" height="270" viewBox="0 0 328 270" fill="none" xmlns="http://www.w3.org/2000/svg">
<g clip-path="url(#clip0_11_257)">
<path d="M80.9598 246.027L81.6269 260.124L81.627 260.125C81.7395 262.508 80.9033 264.837 79.3024 266.602C77.7015 268.367 75.467 269.422 73.0903 269.535L72.799 269.549L71.7068 246.467L80.9598 246.027Z" fill="#2F2E41"/>
<path d="M280.89 222.203C274.193 235.306 265.697 247.978 254.949 259.448C254.71 259.707 254.469 259.959 254.226 260.216L228.759 248.13C228.915 247.87 229.086 247.579 229.27 247.26C240.209 228.497 306.245 114.036 304.158 88.1125C304.401 90.2506 312.228 160.959 280.89 222.203Z" fill="#E6E6E6"/>
<path d="M259.862 261.779C259.505 261.983 259.14 262.181 258.772 262.374L239.668 253.307C239.935 253.117 240.246 252.892 240.604 252.64C246.457 248.427 263.86 235.787 280.89 222.203C299.191 207.606 317.063 191.921 319.717 184.434C319.178 186.151 302.427 238.337 259.862 261.779Z" fill="#E6E6E6"/>
<path d="M31.7791 268.986C48.0622 268.986 61.2622 255.753 61.2622 239.429C61.2622 223.105 48.0622 209.872 31.7791 209.872C15.496 209.872 2.29591 223.105 2.29591 239.429C2.29591 255.753 15.496 268.986 31.7791 268.986Z" fill="#FF2359"/>
<path d="M43.589 227.025H19.9691C18.9254 227.027 17.9248 227.443 17.1867 228.183C16.4487 228.922 16.0336 229.926 16.0324 230.972V247.885C16.0336 248.932 16.4487 249.935 17.1867 250.675C17.9247 251.415 18.9254 251.831 19.9691 251.832H43.589C44.6328 251.831 45.6334 251.415 46.3714 250.675C47.1094 249.935 47.5246 248.932 47.5257 247.885V230.972C47.5246 229.926 47.1094 228.922 46.3714 228.183C45.6334 227.443 44.6327 227.027 43.589 227.025ZM43.589 229.281C43.73 229.281 43.8704 229.299 44.0069 229.335L31.7818 239.112L19.6282 229.315C19.7403 229.292 19.8546 229.28 19.9691 229.281H43.589ZM43.589 249.577H19.9691C19.5218 249.576 19.0929 249.398 18.7767 249.081C18.4604 248.764 18.2825 248.334 18.2819 247.885V231.124L31.0743 241.435C31.2735 241.596 31.5213 241.683 31.7769 241.684C32.0325 241.684 32.2807 241.597 32.4805 241.438L45.2762 231.205V247.885C45.2757 248.334 45.0978 248.764 44.7815 249.081C44.4652 249.398 44.0363 249.576 43.589 249.577Z" fill="white"/>
<path d="M145.561 196.756L152.158 196.811C152.826 196.816 153.486 196.676 154.094 196.399C154.702 196.122 155.242 195.716 155.677 195.208C156.112 194.701 156.432 194.104 156.613 193.46C156.794 192.816 156.834 192.14 156.728 191.479C156.614 190.768 156.335 190.094 155.913 189.511C155.492 188.927 154.94 188.451 154.301 188.121C153.663 187.791 152.956 187.615 152.238 187.609C151.519 187.602 150.809 187.765 150.165 188.084L143.944 191.161L122.666 195.918L113.55 186.575L108.314 195.22L120.615 204.748L145.561 196.756Z" fill="#FFB8B8"/>
<path d="M144.325 265.084L136.553 266.582C131.244 249.805 125.492 233.918 125.492 221.63C117.979 230.013 108.662 234.808 97.6911 236.314L98.8868 217.734L107.855 212.939L121.58 206.588C122.782 206.032 124.078 205.711 125.4 205.641C127.97 205.506 130.499 206.328 132.5 207.949C134.501 209.571 135.833 211.877 136.24 214.425L144.325 265.084Z" fill="#2F2E41"/>
<path d="M107.108 234.067L104.01 236.427C102.678 237.442 101.104 238.09 99.4451 238.307C97.7861 238.523 96.0993 238.302 94.5523 237.663C85.6795 230.996 79.376 232.963 73.6629 243.026C66.8103 235.273 65.1196 224.075 71.2353 212.49L105.164 213.239L112.04 211.141L107.108 234.067Z" fill="#2F2E41"/>
<path d="M95.808 268.788C93.8638 269.388 91.7711 269.283 89.8966 268.491C88.022 267.699 86.4852 266.271 85.5553 264.458C82.5061 261.765 79.9334 257.911 77.7019 253.223C76.1009 249.784 74.7261 246.244 73.5864 242.626C72.0423 237.845 74.6241 232.622 79.4295 231.192C79.5724 231.149 79.717 231.109 79.8634 231.071C86.2783 229.42 92.8659 233.129 95.0587 239.394L101.435 257.612C101.812 258.688 101.973 259.828 101.91 260.967C101.847 262.106 101.561 263.221 101.069 264.249C100.576 265.277 99.8861 266.197 99.0385 266.958C98.1908 267.719 97.202 268.305 96.1285 268.682C96.0223 268.72 95.9155 268.755 95.808 268.788Z" fill="#2F2E41"/>
<path opacity="0.2" d="M76.6161 251.148C76.6161 251.148 84.0895 259.54 85.5842 264.334L76.6161 251.148Z" fill="black"/>
<path d="M47.6315 211.548L45.1303 217.668C44.8772 218.287 44.7619 218.954 44.7924 219.622C44.823 220.291 44.9986 220.945 45.307 221.538C45.6155 222.132 46.0494 222.65 46.5784 223.059C47.1074 223.467 47.7189 223.754 48.3702 223.901C49.0711 224.059 49.7992 224.05 50.496 223.874C51.1927 223.699 51.8387 223.362 52.3818 222.89C52.9249 222.419 53.35 221.826 53.623 221.16C53.8959 220.494 54.009 219.773 53.9532 219.055L53.4143 212.121L56.9138 190.549L68.9535 185.536L62.8919 177.45L49.4982 185.36L47.6315 211.548Z" fill="#FFB8B8"/>
<path d="M107.406 212.489C98.8173 226.953 81.6947 232.553 67.0292 221.228C69.609 212.73 77.9381 189.245 72.5573 188.346C61.1326 193.149 61.116 181.872 58.979 176.228L84.9863 166.638L99.0363 170.534L101.916 171.559C103.791 172.225 105.416 173.451 106.575 175.072C107.733 176.693 108.369 178.63 108.396 180.624C102.494 189.172 98.1252 198.29 107.406 212.489Z" fill="#FF2359"/>
<path d="M110.695 200.802L100.381 192.261L103.819 172.332L117.869 187.316L110.695 200.802Z" fill="#FF2359"/>
<path d="M281.824 63.8962H280.35V23.4238C280.35 17.2114 277.888 11.2535 273.506 6.86066C269.124 2.46785 263.181 0 256.984 0H171.451C165.254 0 159.311 2.46785 154.929 6.86066C150.547 11.2535 148.086 17.2114 148.086 23.4238V245.46C148.086 251.672 150.547 257.63 154.929 262.023C159.311 266.415 165.254 268.883 171.451 268.883H256.984C263.181 268.883 269.124 266.415 273.506 262.023C277.887 257.63 280.349 251.672 280.349 245.46V92.7052H281.823L281.824 63.8962Z" fill="#3F3D56"/>
<path d="M257.927 6.09352H246.762C247.276 7.35555 247.472 8.72488 247.333 10.0808C247.195 11.4368 246.725 12.7378 245.967 13.8691C245.209 15.0005 244.184 15.9274 242.984 16.5684C241.784 17.2093 240.446 17.5446 239.086 17.5446H190.085C188.726 17.5444 187.387 17.2092 186.188 16.5682C184.988 15.9273 183.964 15.0005 183.205 13.8693C182.447 12.7381 181.978 11.4373 181.839 10.0815C181.7 8.72575 181.896 7.35658 182.41 6.09463H171.98C167.352 6.09463 162.914 7.93765 159.641 11.2183C156.369 14.4989 154.531 18.9483 154.531 23.5878V245.297C154.531 249.936 156.369 254.386 159.641 257.666C162.914 260.947 167.352 262.79 171.98 262.79H257.924C262.551 262.79 266.99 260.947 270.262 257.666C273.535 254.386 275.373 249.936 275.373 245.297V245.297V23.5867C275.373 18.9472 273.535 14.4978 270.262 11.2171C266.99 7.93653 262.551 6.09351 257.924 6.09351H257.927L257.927 6.09352Z" fill="white"/>
<path d="M215.101 250.4C220.393 250.4 224.683 246.099 224.683 240.794C224.683 235.489 220.393 231.188 215.101 231.188C209.809 231.188 205.519 235.489 205.519 240.794C205.519 246.099 209.809 250.4 215.101 250.4Z" fill="#E6E6E6"/>
<path d="M176.229 151.958C175.323 151.958 174.586 152.802 174.586 153.838C174.586 154.874 175.323 155.718 176.229 155.718H253.675C254.58 155.718 255.318 154.874 255.318 153.838C255.318 152.802 254.58 151.958 253.675 151.958H176.229Z" fill="#E6E6E6"/>
<path d="M176.229 196.293C175.323 196.293 174.586 197.137 174.586 198.173C174.586 199.21 175.323 200.053 176.229 200.053H253.675C254.58 200.053 255.318 199.21 255.318 198.173C255.318 197.137 254.58 196.293 253.675 196.293H176.229Z" fill="#E6E6E6"/>
<path d="M176.229 163.237C175.323 163.237 174.586 164.08 174.586 165.117C174.586 166.153 175.323 166.996 176.229 166.996H209.554C210.46 166.996 211.197 166.153 211.197 165.117C211.197 164.08 210.46 163.237 209.554 163.237H176.229Z" fill="#E6E6E6"/>
<path d="M176.229 173.988C175.323 173.988 174.586 174.831 174.586 175.867C174.586 176.904 175.323 177.747 176.229 177.747H253.675C254.58 177.747 255.318 176.904 255.318 175.867C255.318 174.831 254.58 173.988 253.675 173.988H176.229Z" fill="#E6E6E6"/>
<path d="M176.229 185.266C175.323 185.266 174.586 186.109 174.586 187.146C174.586 188.182 175.323 189.026 176.229 189.026H209.554C210.46 189.026 211.197 188.182 211.197 187.146C211.197 186.109 210.46 185.266 209.554 185.266H176.229Z" fill="#E6E6E6"/>
<path d="M190.849 66.365H239.059C239.592 66.3656 240.102 66.578 240.479 66.9555C240.855 67.333 241.067 67.8449 241.068 68.3787V118.713C241.067 119.247 240.855 119.759 240.479 120.136C240.102 120.514 239.592 120.726 239.059 120.727H190.849C190.317 120.726 189.806 120.514 189.43 120.136C189.053 119.759 188.841 119.247 188.841 118.713V68.3787C188.841 67.8448 189.053 67.333 189.43 66.9555C189.806 66.578 190.317 66.3656 190.849 66.365Z" fill="#FF2359"/>
<path d="M228.787 110.347C228.966 110.347 229.144 110.312 229.309 110.244C229.475 110.175 229.626 110.075 229.753 109.948C229.879 109.821 229.98 109.67 230.049 109.504C230.118 109.338 230.153 109.16 230.153 108.98C230.153 108.801 230.118 108.623 230.049 108.457C229.981 108.291 229.88 108.14 229.753 108.013C229.627 107.886 229.476 107.785 229.31 107.716C229.145 107.648 228.967 107.612 228.788 107.613H201.122C200.943 107.612 200.765 107.647 200.599 107.716C200.434 107.784 200.283 107.885 200.156 108.012C200.029 108.139 199.928 108.289 199.86 108.455C199.791 108.621 199.755 108.799 199.755 108.979C199.755 109.159 199.79 109.337 199.859 109.503C199.928 109.669 200.028 109.82 200.155 109.947C200.282 110.074 200.432 110.175 200.598 110.243C200.764 110.312 200.941 110.347 201.121 110.347H228.787Z" fill="white"/>
<path d="M228.787 102.292C229.148 102.292 229.495 102.148 229.751 101.891C230.007 101.635 230.15 101.287 230.15 100.925C230.15 100.562 230.007 100.214 229.751 99.9578C229.495 99.7014 229.148 99.5574 228.787 99.5574H201.122C200.76 99.5572 200.413 99.7011 200.157 99.9573C199.901 100.214 199.758 100.561 199.757 100.924C199.757 101.286 199.901 101.634 200.156 101.891C200.412 102.147 200.759 102.292 201.121 102.292H228.787Z" fill="white"/>
<path d="M214.954 76.7449C216.652 76.7449 218.312 77.2496 219.723 78.1952C221.135 79.1408 222.235 80.4848 222.885 82.0573C223.535 83.6298 223.705 85.3601 223.373 87.0294C223.042 88.6988 222.225 90.2321 221.024 91.4357C219.824 92.6392 218.294 93.4588 216.629 93.7908C214.964 94.1229 213.238 93.9525 211.669 93.3011C210.101 92.6498 208.76 91.5468 207.817 90.1316C206.873 88.7164 206.37 87.0526 206.37 85.3505C206.373 83.069 207.278 80.8816 208.887 79.2683C210.496 77.6549 212.678 76.7475 214.954 76.7449Z" fill="white"/>
<path d="M105.426 164.029H79.9414C79.4172 164.028 78.9146 163.819 78.544 163.448C78.1733 163.076 77.9648 162.572 77.9642 162.047V151.035C77.9642 147.121 79.515 143.368 82.2754 140.601C85.0359 137.833 88.7798 136.279 92.6837 136.279C96.5875 136.279 100.331 137.833 103.092 140.601C105.852 143.368 107.403 147.121 107.403 151.035V162.047C107.403 162.572 107.194 163.076 106.823 163.448C106.453 163.819 105.95 164.028 105.426 164.029Z" fill="#2F2E41"/>
<path d="M104.967 157.737C107.825 152.494 105.903 145.92 100.674 143.054C95.4439 140.188 88.8868 142.115 86.028 147.358C83.1691 152.601 85.0911 159.174 90.3209 162.04C95.5506 164.906 102.108 162.979 104.967 157.737Z" fill="#FFB6B6"/>
<path d="M110.885 152.136H95.3023L95.1424 149.893L94.3435 152.136H91.944L91.6273 147.691L90.0438 152.136H85.4009V151.916C85.4044 148.821 86.6322 145.854 88.8151 143.666C90.9979 141.478 93.9575 140.247 97.0445 140.243H99.2416C102.329 140.247 105.288 141.478 107.471 143.666C109.654 145.854 110.882 148.821 110.885 151.916V152.136Z" fill="#2F2E41"/>
<path d="M95.1747 166.085C95.0574 166.085 94.9403 166.074 94.8248 166.054L83.4142 164.035V145.13H95.9751L95.6641 145.493C91.3374 150.552 94.5971 158.755 96.9252 163.194C97.0968 163.519 97.1733 163.886 97.1459 164.253C97.1185 164.62 96.9884 164.972 96.7704 165.267C96.5879 165.52 96.3481 165.726 96.0707 165.869C95.7933 166.011 95.4862 166.085 95.1747 166.085Z" fill="#2F2E41"/>
<path d="M133.165 259.426L147.243 259.425H147.244C149.623 259.425 151.905 260.373 153.588 262.059C155.27 263.746 156.216 266.034 156.216 268.419V268.711L133.166 268.712L133.165 259.426Z" fill="#2F2E41"/>
<path d="M327.631 269.627H0.368539C0.270797 269.627 0.177057 269.588 0.107942 269.519C0.0388279 269.45 0 269.356 0 269.258C0 269.16 0.0388279 269.066 0.107942 268.996C0.177057 268.927 0.270797 268.888 0.368539 268.888H327.631C327.729 268.888 327.823 268.927 327.892 268.996C327.961 269.066 328 269.16 328 269.258C328 269.356 327.961 269.45 327.892 269.519C327.823 269.588 327.729 269.627 327.631 269.627Z" fill="#CACACA"/>
</g>
<defs>
<clipPath id="clip0_11_257">
<rect width="328" height="269.627" fill="white"/>
</clipPath>
</defs>
</svg>
